<svg xmlns="http://www.w3.org/2000/svg" width="992.87" height="992.89" viewBox="0 0 992.87 992.89">
    <title>calendar</title>
    <path d="M207.86,93.45v24.27q0,25.5,0,51c0,43.06,33.33,77.2,75.65,77.53,42.78.33,76.89-33.16,77.41-76.35.28-23.66.06-47.33.06-71V94H666.14v5.9c0,22.84-.08,45.68,0,68.51.2,46.27,36.19,80.2,82.34,77.73,38.45-2.05,70.18-35.45,70.69-74.8.3-23.67.07-47.34.08-71V94.17a16.06,16.06,0,0,1,3.11-.68c27.17.14,54.38-.65,81.48.69,51.5,2.54,95.59,42.65,104.17,93.54a130.86,130.86,0,0,1,1.88,21.37q.14,342.54,0,685.09c0,58.13-39.72,104.69-96.94,114.3a118.7,118.7,0,0,1-19.4,1.44q-380.05.11-760.1,0c-58.19,0-105-39.35-114.82-96.36a119.35,119.35,0,0,1-1.47-19.91q-.12-342,0-684.08c0-59.62,41.54-107.12,100.54-115.15a142.07,142.07,0,0,1,18.46-1c21.67-.11,43.34,0,65,0ZM513.39,360.67H100.31c-7.15,0-7.16,0-7.16,6.92q0,262.56,0,525.11c0,24.79,16.21,41.18,40.94,41.18q379.32,0,758.65,0a50.78,50.78,0,0,0,11.88-1.22c18.37-4.49,29.28-19.76,29.28-40.69q0-261.81,0-523.6c0-8.85.4-7.65-7.93-7.65Q719.69,360.65,513.39,360.67Z"
          transform="translate(-17.14 -17.09)" fill="#fff"/>
    <path d="M322.33,112.45c0,18.66.05,37.33,0,56-.08,22.3-16.6,39.42-37.91,39.41s-38.05-17.16-38.09-39.33c-.06-37.83-.14-75.66,0-113.5a38.13,38.13,0,0,1,34.47-37.75c18.73-1.92,36.33,10.9,40.58,29.75a46.25,46.25,0,0,1,.88,9.92C322.37,75.45,322.33,94,322.33,112.45Z"
          transform="translate(-17.14 -17.09)" fill="#fff"/>
    <path d="M704.75,112.45c0-18.66,0-37.33,0-56,.06-22.2,16.65-39.33,38-39.31s38,17.24,38,39.38q.06,56,0,112c0,22.07-16.82,39.35-38.07,39.34s-37.87-17.22-37.92-39.41C704.72,149.78,704.75,131.12,704.75,112.45Z"
          transform="translate(-17.14 -17.09)" fill="#fff"/>
    <path d="M524.53,609c2.25-36.46,8.78-70.78,42.09-93,11.44-7.64,24.34-11.72,37.91-13.13,20.36-2.12,40.62-1.75,60.34,4.76,40.1,13.23,63.56,47,63.6,91.17,0,27.21-9.1,50.9-28.59,69.7-12.17,11.75-25.84,22-39.29,32.35-15.73,12.07-32.17,23.2-47.85,35.32-6,4.68-10.85,11-16.22,16.52l1,1.68h131a11.28,11.28,0,0,1,.78,2.47c0,15.33,0,30.66.11,46,0,2.48-.8,3.77-3.44,3.62-1.5-.09-3,0-4.5,0H520.81c1-8.43,1.57-16.34,3-24.09,5.56-30.4,19.5-56.36,43.29-76.22,17.13-14.29,35.33-27.28,52.89-41.06,9.17-7.19,18.48-14.32,26.86-22.38,16.86-16.19,24.6-35.93,19.35-59.36-6.64-29.61-42.36-42.29-66.74-23.94C589.34,567,586,578.07,584.22,589.83c-.8,5.26-1.13,10.6-1.56,15.91-.19,2.43-.69,4-3.73,4-17.33-.1-34.66-.06-52-.1A11.91,11.91,0,0,1,524.53,609Z"
          transform="translate(-17.14 -17.09)" fill="#fff"/>
    <path d="M298.27,556.42c11.36-1,22-1.65,32.56-3.07,29.91-4,44.87-18.43,50.63-48.14a15.9,15.9,0,0,1,.64-1.73h48.55V806.06H370.28V597c-2.57-.17-4.66-.43-6.74-.44-19.84,0-39.68-.14-59.51.08-4.56,0-6-1.24-5.87-5.9C298.5,579.44,298.27,568.12,298.27,556.42Z"
          transform="translate(-17.14 -17.09)" fill="#fff"/>
</svg>