<svg xmlns="http://www.w3.org/2000/svg" width="994.99" height="994.99" viewBox="0 0 994.99 994.99">
    <title>communion</title>
    <path d="M1010.12,512.88c-.13,275-223.25,497.49-498.63,497.24-274.25-.25-496.43-223.4-496.37-498.51C15.19,237.49,238.68,14.85,513.5,15.12,787.69,15.4,1010.24,238.47,1010.12,512.88Zm-24.63-.14c.48-260.91-211-472.3-473.13-473C253.53,39,41,250.7,39.61,509.25c-1.36,261.9,209.61,475.27,470.52,476.2A472.43,472.43,0,0,0,985.49,512.74Z"
          transform="translate(-15.12 -15.12)" fill="#fff"/>
    <path d="M429,566.64c-10.05-8.14-20.26-15.63-29.59-24.1-35.61-32.34-59.69-72.22-75.15-117.48-14.69-43-20.49-87.41-20.42-132.72,0-5,2.26-8.65,6.22-10.61,7.86-3.89,15.86-7.84,24.22-10.34,23.26-6.94,47.29-10.1,71.43-11.13,26.78-1.15,53.64-1.65,80.42-.93,30.67.81,61.2,4,90.75,13,6.94,2.11,13.59,5.43,20.06,8.78,5.05,2.61,7.27,7,7.21,13.15-.46,51.44-7.81,101.6-27.61,149.41C556.1,493,525.3,534.26,480.63,564.42c-.68.45-1.3,1-3.59,2.76,1.5.61,2.83.79,3.62,1.53C499,585.89,498,614,478.22,629.56c-2.59,2-3.36,3.77-2.72,7.07,3.23,16.7,9.28,32,21.35,44.36a14.72,14.72,0,0,0,7.2,3.64c14,2.89,28.06,5.45,42.1,8.16a22.63,22.63,0,0,1,3.31,1.12c14.52,5.23,18.35,11.93,14.36,26.87a12.87,12.87,0,0,1-6.54,7.65c-10.57,4.32-21.25,8.94-32.35,11.31-32.47,6.92-65.44,7.64-98.49,5.61-20.83-1.29-41.47-3.68-61.44-10.16-2.22-.72-4.42-1.5-6.58-2.38-13.93-5.74-17.88-12.61-14.75-27.37a11.55,11.55,0,0,1,6.06-7.26,268.66,268.66,0,0,1,30.25-9.8c7.7-2,15.81-2.28,23.65-3.74a14.35,14.35,0,0,0,7.26-3.54c12.63-12.84,18.62-28.94,21.72-46.29a5,5,0,0,0-1.35-3.82C408.71,609.62,407.93,588.7,429,566.64Zm25-254.79c33.84-.45,67.65-1.49,101-7.88,8.11-1.55,16-4.32,23.82-7.16C581.1,296,584,293,584,291s-2.76-4.68-4.95-6A41.76,41.76,0,0,0,569,280.84c-24.62-7.27-50-9.42-75.45-10.84-42.69-2.38-85.3-1.69-127.6,5a244.09,244.09,0,0,0-33.37,8.24c-3.51,1.08-8.31,4.61-8.75,7.59-.74,4.87,5,6.48,9,7.8A154.28,154.28,0,0,0,353,304.05C386.38,310.31,420.17,311.4,454,311.85Z"
          transform="translate(-15.12 -15.12)" fill="#fff"/>
    <path d="M669.67,532.78c-26,11.29-40.72,30.93-48.59,56.24-5.08,16.29-6.23,39.26-2.53,49.19,2.58-7.33,4.89-14.34,7.52-21.23,8.08-21.21,18.36-41.13,35.28-56.82a65.74,65.74,0,0,1,39.31-17.89,21.55,21.55,0,0,1,9.71,1.17c16,6.44,31.83,13.25,47.72,19.94-.17.37-.34.75-.5,1.12-5.35.67-10.78.91-16,2.1-14,3.18-25.31,11-34.54,21.72-18.41,21.43-25.87,46.83-25.68,75.08.74-1.47,1.51-2.92,2.21-4.4,10.06-21.16,21.44-41.41,38.16-58.25,19.08-19.22,41.47-22.8,66.19-13.91,4.34,1.56,8.06,5.81,11.2,9.55,12.87,15.28,19.74,32.68,20.8,53,2.49,48.1-36.9,92.51-89.26,96.74-48.26,3.9-93.25-5.23-133.46-33.08-21.45-14.86-38.26-34.12-46.13-59.35-9.56-30.66-7.28-60.59,12.39-87.09,14.17-19.1,35-28.2,57.59-33.41C636.77,529.59,652.55,529.58,669.67,532.78Z"
          transform="translate(-15.12 -15.12)" fill="#fff"/>
</svg>