<svg xmlns="http://www.w3.org/2000/svg" width="994.99" height="994.99" viewBox="0 0 994.99 994.99">
    <title>makearequest</title>
    <path d="M1010.12,512.91c-.14,275-223.27,497.47-498.66,497.21C237.23,1009.86,15,786.69,15.12,511.59,15.21,237.46,238.7,14.84,513.53,15.12,787.7,15.4,1010.25,238.49,1010.12,512.91Zm-970.37-.56c.32,261.21,211.55,473.2,471.48,473.16,263.55,0,474.43-211.19,474.27-474.87-.17-260-212.73-471-474.24-470.91C251.36,39.87,39.42,252.3,39.75,512.35Z"
          transform="translate(-15.12 -15.12)" fill="#fff"/>
    <path d="M815.85,713.13c-15.23,24.24-33.22,45.39-53.26,64.82q-11.48,11.13-23.71,21.47c-12.09,10.2-20.11,10.5-33.63,2.5-9.75-5.77-19.46-11.67-29.59-16.7-36.66-18.16-70.14-41-101.33-67.36-6.48-5.49-13-11-20-15.81-19.71-13.75-29-33.19-32.24-56.35-3.54-25.34-.28-50.2,4.65-75,4.23-21.26,9-42.44,7.29-64.34-.93-11.79-2.24-23.55-3.34-35.33A99.33,99.33,0,0,1,530,460.6c.13-14.27,12.7-23.25,26.23-18.55,13.92,4.83,22.13,15.07,23.92,29.38,2,16.34,2.48,32.87,4,49.29.92,9.74,1.9,19.59,4.21,29.07,1.64,6.72,5.55,12.88,8.45,19.3l2.32-.3c.46-2.59,2-5.57,1.22-7.7-9.57-26.1-6.8-53.71-10.36-80.53a100,100,0,0,0-5.64-22.17c-4.48-11.84-13.22-20-25.31-23.88-5-1.64-7.34-4.71-8.06-9.58-2.15-14.33-3.44-28.86-6.67-42.95-4.94-21.56-11-42.9-17-64.18-4.19-14.62-6.18-29,0-43.5a30.74,30.74,0,0,1,1.89-4.07c3.12-5.17,7.21-5.29,10.43-.19,33.68,53.39,64.77,108,83.26,168.93,10,33,16.18,66.64,21.28,100.62,5.76,38.39,12.26,76.67,18.16,115,1.19,7.76,4.9,12,12.4,14.27,46.32,14.25,92.56,28.81,138.82,43.27C814.09,712.35,814.66,712.64,815.85,713.13ZM569.92,471.92c-1.43,1.13-2.34,1.79-3.17,2.53-11.88,10.6-15.18,10.3-25.31-2-.9-1.11-2.59-1.57-3.92-2.32-.27,1.84-1.3,4-.68,5.46,3,7.09,8.46,11.5,16.25,12.38C562.74,489,570.19,482.26,569.92,471.92Z"
          transform="translate(-15.12 -15.12)" fill="#fff"/>
    <path d="M427.7,568.69a64.87,64.87,0,0,0,12.43-34.07c1.62-19.58,2.54-39.23,4.19-58.82,1.17-13.93,7.17-25.23,20.13-31.88,16.51-8.47,31.84,1.28,30.7,19.73-.65,10.47-2,20.9-3.15,31.33-2.5,22.12.15,43.79,4.29,65.55,3.61,18.94,6.3,38.13,8.08,57.33a116.66,116.66,0,0,1-6.23,48.76c-4,11.76-10.57,22-20.3,29.78-21.48,17.16-43,34.22-64.87,50.94-22.33,17.12-47.72,29.15-72.24,42.64-7.88,4.33-15.63,8.92-23.39,13.47-9.06,5.32-18.21,5.91-26.63-.78a372.63,372.63,0,0,1-81.39-89.36c1.46-.6,2.43-1.09,3.46-1.42,46.41-14.54,92.79-29.16,139.26-43.51,7.46-2.3,9.91-7.32,11-14.31,7.09-45.6,14.58-91.14,21.51-136.77,10.3-67.88,33.22-131.29,67.15-190.79,10.81-18.94,22.4-37.45,33.84-56,1.15-1.85,4-4.11,5.69-3.82,2.11.38,4.48,2.83,5.54,5,7,14.27,6,28.89,1.91,43.83-6.59,23.9-13.1,47.85-18.84,72-2.64,11.13-3.55,22.7-4.93,34.11-.84,6.86-3.26,11.31-10.6,13.81-14.18,4.83-22.75,15.91-25.92,30.13A240.22,240.22,0,0,0,433.43,503c-1.17,18.81-1.59,37.61-8.05,55.67-1,2.88,0,6.51.06,9.79Zm27.6-96.84c-.6,6.33,1.49,10.52,6.1,13.43,9.47,6,23.05,1.24,27-9.4a6,6,0,0,0,.46-2.9c-.16-1-.65-2.58-1.36-2.82s-2.22.5-2.91,1.24c-1.82,1.93-3.25,4.23-5.08,6.16-5.14,5.43-9.28,5.86-15.39,1.51C461.29,477.06,458.73,474.69,455.3,471.85Z"
          transform="translate(-15.12 -15.12)" fill="#fff"/>
    <path d="M501.21,257.6l-4.45-5.71c-3.16-4-6-4.21-9.31-.37a40.21,40.21,0,0,0-3.84,5.83q-26.16,44.06-52.29,88.13a8.27,8.27,0,0,1-3.24,3.38c1.62-4.94,3.14-9.91,4.87-14.81,11.38-32.39,28.11-62.19,44.54-92.14,2.8-5.11,5.5-10.28,8.37-15.36a23.63,23.63,0,0,1,3.76-5.24c3.6-3.54,6.77-3.13,9.27,1.31a38.94,38.94,0,0,1,3.54,8.76C504.71,239.82,503.3,248.13,501.21,257.6Z"
          transform="translate(-15.12 -15.12)" fill="#fff"/>
    <path d="M596.35,349.23c-.86-1.32-1.75-2.6-2.55-4Q567.52,301,541.27,256.71c-.34-.57-.67-1.15-1-1.72-4.94-8-7.76-8.2-13.42-.92-.7.9-1.49,1.73-2.77,3.21-3-12.39-4.1-23.9,2.38-34.88,2.47-4.18,5.45-4.53,9-1.28a14.45,14.45,0,0,1,3.09,3.88c16,31.11,32.14,62.12,47.63,93.47,4.75,9.6,7.6,20.13,11.32,30.24Z"
          transform="translate(-15.12 -15.12)" fill="#fff"/>
</svg>