<svg xmlns="http://www.w3.org/2000/svg" width="995.55" height="978.23" viewBox="0 0 995.55 978.23">
    <title>refresh</title>
    <path d="M248.24,810.39a376.14,376.14,0,0,0,89.72,58,412.59,412.59,0,0,0,104,32.38c13.5,2.34,27.26,3.33,40.95,4.24a363.72,363.72,0,0,0,38.35.94c14.52-.56,29-2.38,43.47-3.79,26.37-2.57,51.84-9.31,76.82-17.72,35.31-11.89,68.61-28.2,99-49.79,15.35-10.91,29.71-23.26,44.05-35.51,25.93-22.14,46.51-49,65.14-77.24a394.14,394.14,0,0,0,51.87-114.32c5.38-19.88,9.11-40.21,13.28-60.39,1.43-6.94,1.39-14.18,2.92-21.08,4-17.83,15.68-29,32.87-33.48,17.65-4.57,34-.8,47,12.76,6.79,7.08,10,16,11.55,25.71,2.13,13.39-1.32,26.22-3,39.24-4.52,34.48-13.56,67.83-25.6,100.34a539.65,539.65,0,0,1-39.73,83.86c-12.44,21.4-26.27,41.86-42.23,60.62-16.14,19-33,37.55-51.3,54.35-18.11,16.61-37.83,31.69-58,45.79-22.08,15.44-45.44,29.15-70.47,39.49-19.76,8.16-39.57,16.32-59.79,23.23a359.1,359.1,0,0,1-73.64,17.06c-16.54,2-33.12,3.9-49.74,4.93-15.91,1-31.94,1.72-47.83.9-18.58-1-37.09-3.58-55.6-5.76-27.33-3.22-53.82-10.35-79.83-19-16.5-5.47-32.63-12.2-48.57-19.16a451.1,451.1,0,0,1-81.08-46c-15.21-10.82-29.84-22.45-45.53-34.32.6,3.33,1,6.21,1.65,9.07,3.18,15,7.28,29.84,9.41,45,3.72,26.48-12.62,47.76-36.88,51.83-15.77,2.64-31.4-.69-43.55-12.28-7.54-7.2-11.84-16.5-13.66-27-3.41-19.61-7.35-39.13-10.89-58.71-4.86-26.88-9.47-53.79-14.34-80.67-3.44-18.95-7.1-37.87-10.72-56.8-2.39-12.46,1.94-23,9.36-32.57,3.32-4.28,6.77-8.64,10.93-12,6.39-5.22,12.72-10.37,22-10.7,15.48-.54,30.26,3.07,45.23,5.7,18,3.17,36.05,6.45,54.07,9.72,14.9,2.7,29.8,5.46,44.69,8.19,19.74,3.63,39.48,7.23,59.21,10.93,10.39,1.94,21,3.28,29.8,10,11.4,8.75,17.59,19.95,18.6,34.65,1.61,23.46-16.65,41.83-37.08,47-12.27,3.12-24.33.33-36.37-1.91Z"
          transform="translate(-14.33 -23.02)" fill="#fff"/>
    <path d="M846.74,148.35c-2.65-12.57-5.11-23.66-7.28-34.81-1.8-9.2-4.36-18.44-4.62-27.71-.65-22.48,16.43-40.6,38.63-44.77,25.8-4.84,50.63,14.79,53.67,40.7,1.8,15.33,5.52,30.43,8.3,45.64,3.27,17.94,6.41,35.91,9.71,53.85,3.13,17,6.84,33.89,9.48,51,2.94,19,8.38,37.66,8.82,57.14.17,7.45-4.46,12.18-7.41,17.84-5.66,10.86-15.81,17.42-26.82,20.27-8.26,2.15-17.86.5-26.63-.91-23.44-3.77-46.75-8.28-70.1-12.55-15.21-2.79-30.39-5.72-45.6-8.5-17.8-3.26-35.63-6.34-53.42-9.63-10.21-1.89-20.59-3.28-30.51-6.22-33.73-10-40.51-49.46-21.94-72.89,11.22-14.14,26.19-19,43.74-16.1,15.14,2.53,30.21,5.46,45.32,8.19a12.31,12.31,0,0,0,2.76-.44,99.15,99.15,0,0,0-7.58-6.46c-16.36-11.19-32.5-22.75-49.28-33.26-19.12-12-39.76-21-60.81-29.14a389.82,389.82,0,0,0-72.21-20c-12-2.13-24.23-3.38-36.4-4.38-13.21-1.09-26.5-2.26-39.71-1.94-38.35.92-76.1,6.16-113,17.22a412.48,412.48,0,0,0-75.24,31.06c-21.8,11.58-42.55,24.92-61.4,41-12,10.21-24.29,20.18-35.29,31.4A403.8,403.8,0,0,0,165.15,307a444.24,444.24,0,0,0-36.31,75,406.14,406.14,0,0,0-19.19,68.58c-2.26,12.16-4.05,24.43-5.43,36.73-2.41,21.46-18.83,38-39.22,42.77S19.24,518.56,15.41,496c-1.64-9.62-1.21-19.86,0-29.62a348.21,348.21,0,0,1,7.81-44.12c5.81-23,11.86-46,19.68-68.37C54.8,319.76,71,287.48,90.31,256.8c14.87-23.58,31.38-45.9,50.38-66.31,11.57-12.41,23-25.08,35.57-36.41,26.87-24.19,55.66-45.88,87.18-63.84A522.14,522.14,0,0,1,360.4,47c24.65-8,49.77-14.46,75.54-17.83,15.36-2,30.78-4.07,46.23-4.89,19.58-1,39.26-1.72,58.83-.9,17.41.73,34.75,3.57,52.09,5.73a369,369,0,0,1,83,20.52,713.52,713.52,0,0,1,67.59,28.91A442.58,442.58,0,0,1,830,134.84C835,139.06,840.25,143.14,846.74,148.35Z"
          transform="translate(-14.33 -23.02)" fill="#fff"/>
</svg>