<svg xmlns="http://www.w3.org/2000/svg" width="1000.95" height="918.87" viewBox="0 0 1000.95 918.87">
    <title>thankyou</title>
    <path d="M507.2,863.15a599.19,599.19,0,0,1-189.92-32.63c-14.51-5-27.06-2.36-38,8.62C241.49,877,203.52,914.71,165.8,952.65c-10.22,10.28-22.08,18-36.29,19.59C95.66,976.08,65.74,956.37,59,921.73c-2.54-12.92.78-25.17,3.51-37.52Q81.78,796.58,101.18,709c2.53-11.45.23-21.62-7.19-30.91C55,629.22,29,574.45,18.51,512.51c-4.28-25.41-6.36-51.07-4.06-76.54,3.9-43.19,14.59-84.85,33.87-124.08,30.21-61.46,74.15-111.22,129-151.59,73.45-54.09,156.16-85.59,246-99.1,17-2.55,34.07-4.4,51.18-5.31,23.05-1.23,46.28-3,69.22-1.46,92.09,6.07,179.76,28.31,260.24,75C864,164.35,915.2,209,954.07,267c32.69,48.78,53.15,102.16,58.25,160.9,1.54,17.81,3.06,36,1.42,53.66-3.42,36.89-11.53,72.89-26.25,107.22-25.12,58.63-63.1,107.56-111.56,148.56-66.25,56-142.74,91.34-226.92,110.74C606.17,858,559.17,863.15,507.2,863.15Zm295.63-434c-1.22-2.09-2.06-3.66-3-5.16-12.13-19.14-24.2-38.31-36.5-57.33-2.08-3.21-2.07-5.12.66-8,11.64-12.38,23-25,34.42-37.61.93-1,1.69-2.19,3.05-4-16.22,0-31.52-.1-46.81.14-1.57,0-3.42,1.78-4.61,3.18-9.64,11.28-19.14,22.66-28.71,34-1.11,1.32-2.35,2.54-4.45,4.8V275.39H674.25V383.23c0,13.84,0,27.67,0,41.5,0,2.78.11,4.84,3.84,4.79,11.83-.15,23.67-.1,35.5,0,2.59,0,3.55-1.05,3.52-3.58-.08-5.83-.08-11.67,0-17.5,0-1.42.12-3.27,1-4.18,4.17-4.45,8.61-8.64,13.27-13.24,7.38,12,14.44,23.29,21.28,34.71,1.65,2.76,3.51,3.9,6.78,3.85,12.83-.18,25.67-.06,38.5-.08C799.36,429.45,800.78,429.26,802.83,429.1ZM249.19,429h42.18v-6.32c0-18.66,0-37.33,0-56a36.82,36.82,0,0,1,.78-7.92c2-8.73,9.78-13.75,19.32-12.67,7.27.83,11.41,6.32,11.66,15.49,0,1.5,0,3,0,4.5v62.84h41.89c0-27.49.69-54.5-.24-81.45-.61-17.5-11.08-28.75-27.2-32-15.28-3.07-29.44-.13-42,9.4-1.13.86-2.33,1.62-4.38,3V275.35h-42ZM519,403.38c-1.52-.2-2.33-.36-3.13-.39-10.17-.3-11.39-1.51-11.41-11.66,0-12.83,0-25.66-.05-38.49a46.15,46.15,0,0,0-.87-9.91c-3.31-14.25-13.91-21-26.82-24.75-17.94-5.15-36.18-5.12-54.43-1.62-9.61,1.85-18.65,5.18-25.91,12.07-6.65,6.32-9.65,14-8.55,23.41h40.88c3.84-9.39,13.73-13,24.59-9.12,7.17,2.56,10.06,8.81,7.7,17.27-1.86,0-3.85-.07-5.82,0-15.31.6-30.68.78-45.45,5.61-19.09,6.24-27.68,20.1-25.11,39.93,1.6,12.23,8.24,20.07,19.95,23.63,11.07,3.36,22.5,4.08,33.56,1.11,9.47-2.55,18.44-7,27.48-10.52,2.74,2.2,5.81,5.79,9.71,7.62,13.33,6.26,27.14,5.63,40.88,1.18,1.14-.37,2.65-1.95,2.68-3C519.15,418.32,519,410.88,519,403.38ZM411,640.77c0,8.19-.15,15.5.14,22.8a5,5,0,0,0,3.06,3.52,91.07,91.07,0,0,0,14.69,2.72c18.14,1.5,35-2,46.69-17a109.41,109.41,0,0,0,15.31-27.22c13.83-35.85,26.83-72,40.11-108.09.47-1.28.67-2.67,1.11-4.45-12.3,0-24,.25-35.6-.12-4.52-.14-6.34,1.29-7.45,5.6-5.51,21.43-11.33,42.78-17.07,64.15-.4,1.49-1,2.93-2,5.79-1-3.12-1.54-4.79-2-6.48-6.14-21.43-12.36-42.83-18.33-64.31-1-3.49-2.39-4.81-6.11-4.72-10.16.26-20.32.09-30.49.09H402.53c1.23,3.38,2.06,5.85,3,8.28q19.74,49.62,39.51,99.24c3,7.64-.34,15.63-8.2,18.47a36.37,36.37,0,0,1-10.26,1.69C421.66,641,416.69,640.77,411,640.77ZM757.34,513.33c-.11,1.47-.23,2.29-.23,3.12,0,20.65,0,41.31-.05,62,0,10.73-7.46,18.1-17.84,18-9.3-.09-13.94-5.86-13.94-17.37q0-30,0-60v-5.63h-42.1c0,27.24-.7,54.07.28,80.84.54,14.68,7.66,26.8,22.94,31.28,19.62,5.75,37.17,1.57,51.93-12.91,1-1,1.52-2.52,2.25-3.81l1.5,1.08c.7,4.06,1.21,8.16,2.18,12.15.31,1.26,1.83,3.15,2.83,3.17,10.59.24,21.2.15,32.09.15V513.33ZM648.53,429.14c.3-.65.56-.94.56-1.23,0-26,.65-52-.2-78-.64-19.17-10.88-31.37-27.65-34.33a69.52,69.52,0,0,0-22.25.17c-11.37,1.74-20.59,8.08-28.76,17.47-.79-4.91-1.26-9-2.19-12.94-.3-1.25-1.8-3.13-2.79-3.16-10.61-.22-21.23-.14-32.06-.14a30.66,30.66,0,0,0-.42,3.38c0,35,0,70-.08,105,0,3.42,1.37,4.2,4.45,4.16,11.17-.12,22.34-.16,33.5,0,3.61.06,4.53-1.36,4.46-4.72-.18-8.16-.06-16.33-.05-24.5,0-12.83-.21-25.67.17-38.49.28-9.47,8-16,17.74-15.85,8.56.12,13.22,5.4,13.75,15.62.07,1.49,0,3,0,4.5q0,28.5,0,57c0,1.95.18,3.89.29,6ZM598.94,628.39c5.2-.45,9.86-.71,14.48-1.28,26.19-3.2,43.54-18.63,48.26-43.4A82.64,82.64,0,0,0,663,565.32c-1-26.72-14.75-45-39.06-51.75-6.52-1.8-13.46-3.16-20.17-3-9.74.21-19.78.77-29.11,3.32-26.78,7.35-40.71,30.12-38.33,60.67,2.29,29.44,17.84,46.86,46.77,52.09C588.46,627.62,594,627.86,598.94,628.39ZM229.29,403c-5.09,0-9.25.16-13.4,0-5.64-.27-9.48-3.36-9.59-8.88-.31-15.64-.09-31.28-.05-46.93,0-.25.39-.5.95-1.18,5.79,0,11.94.11,18.07-.09,1.34-.05,3.77-1.18,3.79-1.87.25-8.89.17-17.79.17-27.11H205.85V283c-9.57,0-18.39.23-27.19-.1-3.7-.14-4.84,1.42-5.64,4.56-2.21,8.69-4.79,17.29-7,26-.71,2.77-2,3.78-4.81,3.63-4.28-.23-8.57-.06-13.42-.06,0,9.18-.1,17.79.15,26.39,0,.89,2.06,2.35,3.26,2.45,3.76.33,7.55.12,11.94.12V352c0,16,0,32,0,48,.06,18.22,7.61,27.53,25.33,30.86,12.65,2.38,25.21.87,37.63-1.83,1.22-.26,3-2,3-3.06C229.42,418.49,229.29,411,229.29,403Zm596,76.07a14.65,14.65,0,0,0-.15,2.17c3.66,29.71,7.29,59.42,11.15,89.09.15,1.13,2.55,2.73,4,2.8,6.31.31,12.65-.07,19,.22,3.68.17,4.77-1.16,5.2-4.72,2.72-22.28,5.71-44.53,8.55-66.79,1-7.49,1.76-15,2.66-22.77ZM850.7,585.5c-5.83,0-11.66.15-17.48,0-3.34-.11-4.79.83-4.72,4.46.19,10.48.15,21,0,31.46,0,3.1.8,4.5,4.19,4.45,11.66-.15,23.32-.11,35,0,2.88,0,4.23-.77,4.19-3.92q-.2-16.23,0-32.47c0-3.14-1.29-4-4.19-3.94C862,585.61,856.36,585.51,850.7,585.5Z"
          transform="translate(-13.5 -53.84)" fill="#fff"/>
    <path d="M461.52,380.44c2.12,18-9.1,28-26,24.29-4.17-.92-7.44-3-8.25-7.57-.85-4.81,1-8.5,5.12-11C441.32,380.85,451.33,381.09,461.52,380.44Z"
          transform="translate(-13.5 -53.84)" fill="#fff"/>
    <path d="M620.63,569.85c-.5,5-.49,10.57-1.72,15.85-2.09,8.92-9.25,13.41-19.72,13.32-10.17-.09-17.69-4.58-18.76-13.63a135.83,135.83,0,0,1-.14-31.67c1.15-9.74,8.63-14.33,19.21-14.35,10.76,0,17.59,4.78,19.67,14.64C620.23,559,620.15,564.22,620.63,569.85Z"
          transform="translate(-13.5 -53.84)" fill="#fff"/>
</svg>