<svg xmlns="http://www.w3.org/2000/svg" width="994.99" height="994.99" viewBox="0 0 994.99 994.99">
    <title>confirmation</title>
    <path d="M512.88,15.12c274.52.07,497.3,223,497.24,497.63-.07,275-223.15,497.58-498.5,497.37-274.47-.21-496.91-223.73-496.5-498.88C15.54,237.37,238.59,15.05,512.88,15.12ZM39.75,512.3c.3,261.22,211.5,473.22,471.43,473.21,263.54,0,474.47-211.16,474.32-474.82-.15-260-212.67-471.07-474.19-471C251.42,39.84,39.44,252.26,39.75,512.3Z"
          transform="translate(-15.12 -15.12)" fill="#fff"/>
    <path d="M442.77,783.14c-27.48-.13-54.59-2.75-80.6-12.14a149.36,149.36,0,0,1-23.36-11.17c-16.84-9.68-23.13-25.73-25.68-44-2.39-17.14,3.32-32.1,11.49-46.57,6.14-10.89,12.95-21.79,13.89-34.49.76-10.16.83-20.78-1.25-30.69-6.88-32.74-15.26-65.17-22.32-97.88-6.37-29.55-9.32-59.54-7.25-89.8,2.18-31.75,13.6-60.05,34.51-84a337.51,337.51,0,0,1,32.72-32.12c10.66-9.3,17.74-19.76,19.34-34.14,1.71-15.44,19.11-26.78,34.33-22.59,3.94,1.08,7.81,3.93,10.74,6.92,9.57,9.82,21.37,13.09,34.51,12.85,20.39-.36,40.58.86,60.41,6.09,27.41,7.22,50.2,21.91,69.16,42.7C625.15,336,641.4,363.5,656,392c13.16,25.81,25.69,51.95,38.25,78.07,9,18.78,23.13,31.64,42.47,39.4,11.22,4.5,23.09,8.74,32.58,15.87,16.69,12.54,26.29,30.17,25.56,51.65-.48,13.87-6.5,26.38-13.47,38.26-16.29,27.71-38.63,50-63.52,69.8-50.28,40-107,67.14-169,83.56-27.74,7.35-55.91,12.25-84.63,13.54Zm5.78-44.67c30.82.65,71.11-6,102.32-15.28,65.71-19.6,123.83-52,171.68-101.71,10.53-10.93,20.17-22.67,26.78-36.51,3.92-8.19,2.59-12.65-4.64-18.16-8-6.14-17.42-9-27.11-10.91-27-5.19-54-3.46-80.94.7-38.7,6-76,17.25-112.35,31.45-47.59,18.57-92.85,41.3-131.15,75.9-12.65,11.43-24.21,23.92-31.15,39.84-6.44,14.77-4.09,19.81,11.14,24.85C396.81,736.48,421.26,738.59,448.55,738.47Z"
          transform="translate(-15.12 -15.12)" fill="#fff"/>
    <path d="M564.48,599c5,12.91,3.66,25.05-1.49,36.84-8.7,19.91-24,33.71-42.51,44.2-23.55,13.36-48.8,19.28-75.86,16a70.56,70.56,0,0,1-29.49-10.27c-2.34-1.47-4.45-3.28-7.3-5.4C454.57,642,508,618.39,564.48,599Z"
          transform="translate(-15.12 -15.12)" fill="#fff"/>
</svg>