<svg xmlns="http://www.w3.org/2000/svg" width="976.45" height="940.66" viewBox="0 0 976.45 940.66">
    <title>management</title>
    <path d="M463.71,589.9c9.32,14.74,18.35,29.35,27.78,43.7,2.37,3.61,1.92,5.55-1.07,8.3-6.14,5.65-11.85,11.76-17.9,17.51a9,9,0,0,1-5.09,2.61c-34.85,1.67-60.28,19.45-80,46.8a152.2,152.2,0,0,0-26.47,61,3.84,3.84,0,0,0-.21,1c1,10.15-5.11,16.3-11.71,22.79Q256,885.11,163.39,977.08c-4.35,4.32-8.61,5.36-14.21,4.63-21-2.74-39.89-10.74-57-22.94-27.21-19.42-47.83-44-57.92-76.39-2.25-7.24-2.76-15-4.06-22.55-.55-3.26.81-5.58,3.15-7.89Q111.84,774.56,190.2,697c12.71-12.56,25.4-25.14,38.26-37.54a12.19,12.19,0,0,1,6.41-3c40.75-5.54,75.1-22.76,100.8-55.45,11.33-14.43,17-31.2,18.27-49.51a12,12,0,0,1,3.09-6.84c5.82-6.21,12.13-12,18-18.09,2.26-2.35,3.94-2.61,6.77-.82,13.69,8.65,27.58,17,41.26,25.63,2.93,1.87,4.6,1.84,7.16-.69q99.53-98.52,199.21-196.87,71.47-70.57,143.11-141c6.5-6.36,10.62-13.16,12.4-22,2.17-10.77,5.13-21.39,8-32a9.73,9.73,0,0,1,3.47-5.12q58.6-40.72,117.37-81.21c.54-.37,1.14-.66,2.25-1.3l12.69,12.51c7,6.91,14,13.88,21.1,20.7,2.1,2,2.22,3.41.47,5.87q-40.65,57.09-81.19,114.28a11.3,11.3,0,0,1-5.91,3.9C849.85,232,836.35,235,823,238.61a19.93,19.93,0,0,0-8.43,4.78c-35,34.44-69.78,69.08-104.72,103.57Q587.72,467.52,465.53,588C465.06,588.45,464.62,588.94,463.71,589.9Z"
          transform="translate(-30.09 -41.26)" fill="#fff"/>
    <path d="M512.43,578l99-97.79c3.39,4.08,6.12,8.14,9.59,11.42,35.55,33.61,71,67.37,107,100.5,14.72,13.56,30.79,25.64,48.73,34.91a45.28,45.28,0,0,0,20.66,5.13c32.26.42,63.84,4.73,94.05,16.8,44,17.59,75.72,48.58,97.38,90.19,6.07,11.65,10.45,24.18,16.14,36,3.67,7.67.27,13.28-3.81,19.46-13.57-7.63-26.93-15.12-40.27-22.65-28.2-15.91-56.36-31.89-84.65-47.66a7.38,7.38,0,0,0-6.15,0c-43.49,24.89-68.81,62-74.77,112-.79,6.62-1,13.31-1.62,20-.34,3.59.87,5.74,4.14,7.57q60.07,33.66,120,67.58c1.29.72,2.52,1.55,4.07,2.51-3.69,7.26-7.18,14.43-11,21.39a5.76,5.76,0,0,1-4.37,2.29c-44.2-.32-88.12-3-130.28-17.92-27.39-9.7-51-24.83-67.4-49.52a130.48,130.48,0,0,1-20.44-54.88c-2.27-16.32-4-32.84-4.17-49.28-.11-13.3-3.79-24.84-11.61-34.88-15.47-19.87-30.53-40.23-47.73-58.53-35.45-37.72-72.18-74.23-108.4-111.21C515.42,580.39,514.19,579.51,512.43,578Z"
          transform="translate(-30.09 -41.26)" fill="#fff"/>
    <path d="M536.82,409l-97.48,96.09c-1.5-1.37-2.82-2.56-4.12-3.77-33.16-31-66.07-62.33-99.6-92.95-15.15-13.84-31.58-26.27-49.75-36.12a48.83,48.83,0,0,0-23.45-6c-34.88-.28-68.8-5.78-100.78-20.39C122.5,328,93.87,298.94,74,261.17c-6.2-11.77-10.66-24.45-16.59-36.38-3.86-7.75-1.89-13.92,3.28-20.52,1.3.59,2.8,1.15,4.17,1.93q59.76,33.69,119.44,67.52c3.41,1.94,5.78,1.77,9.05-.15,39.44-23.16,63.86-56.95,72-102.08,1.76-9.81,2-19.9,3-29.85.34-3.31-1-5.08-3.87-6.69Q204.6,101.38,144.91,67.58c-1.56-.88-3.09-1.81-5-2.91C143.77,57.18,147.33,50,151.11,43a4.21,4.21,0,0,1,3.16-1.74c47.46-.29,94.42,2.95,139.24,20.54,28.86,11.33,51.55,29.81,66,57.63,9,17.25,13.77,35.82,15.77,55,1.58,15.08,1.89,30.29,2.53,45.46.34,8,3.83,14.81,7.82,21.37,12.73,20.92,28.27,39.77,45,57.47,34.07,36,68.79,71.45,103.24,107.12C534.81,406.78,535.67,407.75,536.82,409Z"
          transform="translate(-30.09 -41.26)" fill="#fff"/>
</svg>