<svg xmlns="http://www.w3.org/2000/svg" width="1000.05" height="875.45" viewBox="0 0 1000.05 875.45">
    <title>sendhelp</title>
    <path d="M514.07,195.81c5.15-6.34,9.46-12.06,14.2-17.42,18.58-21,40.68-37.9,63.7-53.61,32.14-21.91,66.81-38,105.36-45,38.08-6.88,75.79-3.7,113,5.4C875.18,101,927.82,135.39,965.92,190.75c25.23,36.66,39.64,77.53,45.27,121.52,11.57,90.5-13.54,171.39-64.81,245.31-33.37,48.13-73.73,90-117.94,128-49.52,42.58-100.15,83.86-150.25,125.78-42.34,35.41-83.77,71.8-120.43,113.27-3.2,3.62-6.25,7.36-9.48,11-18.57,20.65-49.8,21.55-67.54.84-41.39-48.31-88.85-90.13-137.58-130.65-42.54-35.38-85.53-70.21-127.64-106.09-49.84-42.46-96.44-88.15-134-142.27-31.25-45.06-54.08-93.83-62.83-148.3C8,342.06,14.57,277,46.05,216c34.18-66.25,89.08-107.4,160-127.9,33.22-9.61,67.23-13.71,101.82-11.24,40.4,2.89,77.35,16.55,111.75,37.35,29.19,17.66,56.29,38.11,79.49,63.32C504.26,183.16,508.78,189.33,514.07,195.81Z"
          transform="translate(-13.92 -76.07)" fill="#fff"/>
</svg>