<svg xmlns="http://www.w3.org/2000/svg" width="982.66" height="998.9" viewBox="0 0 982.66 998.9">
    <title>transparency</title>
    <path d="M510.26,13.8c22,1,38.2,6.66,54.26,12.7a1151.23,1151.23,0,0,1,161.91,75.85c40.33,22.82,81.15,44.78,124.06,62.51,29.35,12.13,59.37,22,91.13,25.58,6.78.76,13.64.87,20.43,1.5,22.36,2.07,39,16.71,43.42,38.53a40.16,40.16,0,0,1,.27,11.44c-2.44,27.21-4.48,54.48-7.67,81.6C984.29,440.55,955.79,553.45,902,659Q827.79,804.43,699.72,905.73c-50,39.6-104.05,72.68-161.11,101-16,7.94-32.09,8-48.09.06-67-33.22-129.84-73-186.56-122A738.84,738.84,0,0,1,135.77,675.47c-45.45-84.06-74.18-173.83-91.93-267.4-10.67-56.23-17-113-20.41-170.07-1.23-20.41,14.15-40,36.23-44.69,9-1.92,18.53-1.78,27.79-2.84,36.5-4.21,70.63-16.45,104-31.07,43.27-19,84.47-41.95,125.7-64.85A1039.8,1039.8,0,0,1,480.67,21.11C491.58,17.32,503.18,15.51,510.26,13.8ZM441.38,555.27c-2.57-2.45-4-3.78-5.41-5.17-24.3-24.26-48.49-48.64-72.92-72.77-22.76-22.49-60.32-14.19-70.61,15.71-6,17.45-1.56,32.77,11.42,45.75Q356,590.94,408.16,643.13c19.55,19.51,45,19.35,64.67-.28L722.24,393.66c2.12-2.12,4.29-4.2,6.28-6.44a42.64,42.64,0,0,0-9.59-64.63c-17.52-10.77-38.42-7.88-53.86,7.54Q555.21,439.85,445.4,549.64C443.88,551.16,442.86,553.17,441.38,555.27Z"
          transform="translate(-23.36 -13.8)" fill="#fff"/>
</svg>