<svg xmlns="http://www.w3.org/2000/svg" width="994.99" height="994.99" viewBox="0 0 994.99 994.99">
    <title>baptism</title>
    <path d="M1010.12,513C1010,788,786.81,1010.4,511.4,1010.12,237.18,1009.84,15,786.6,15.12,511.53,15.27,237.37,238.75,14.82,513.59,15.12,787.75,15.43,1010.28,238.55,1010.12,513Zm-24.63,0C986.07,252,774.81,40.63,512.58,39.73c-259-.89-471.77,211.05-473,469.8C38.39,771.4,249.47,984.68,510.41,985.45,773.22,986.21,984.92,775.42,985.49,513Z"
          transform="translate(-15.12 -15.12)" fill="#fff"/>
    <path d="M238.05,431.82c-.61-41.33,16.77-81.14,57.69-109.16,23.92-16.38,50.82-21.16,79.21-18,11,1.22,22.26,2.82,32.81,6.13,33,10.36,48.77,33.57,47.74,68.18a59.07,59.07,0,0,1-12.39,35.29c-9.32,11.91-19.77,22.94-29.79,34.29-5.4,6.12-11,12-16.39,18.19-21.89,25.15-16,54.65-2.24,74.32,5.53,7.9,12.09,15.08,18.06,22.67,12,15.31,16.11,32.73,12.88,51.76C421,643,401.28,659.32,372.4,660c-31.62.72-56.73-12.51-76.84-36.12-18.49-21.71-29.83-47.23-38.37-74.1C245.78,513.81,239.91,476.87,238.05,431.82Z"
          transform="translate(-15.12 -15.12)" fill="#fff"/>
    <path d="M775.86,591.51c-2.58,49-11.13,98.72-33.06,145.34-10.54,22.43-24.3,42.55-44.82,57.24-19.93,14.26-42.21,19.39-66.34,16-28.15-4-46.37-28.77-44.08-59.08a66.1,66.1,0,0,1,15.16-37.88c4.64-5.67,9.4-11.25,14-17a66.86,66.86,0,0,0,14.84-45.56,42.93,42.93,0,0,0-9.21-25.48c-8.26-10.41-17.41-20.13-26.1-30.21s-18.38-19.88-26-30.9c-15.36-22.12-14.79-46-4.42-70a50.61,50.61,0,0,1,29-27.72c48-18.13,94.31-17.69,135.53,16.84C763.08,510.65,776.86,547.12,775.86,591.51Z"
          transform="translate(-15.12 -15.12)" fill="#fff"/>
    <path d="M497.29,255.27c-.86,17.53-8.09,32.6-23.89,42.75-20.07,12.89-44,4.52-52.07-17.9-7.92-22.14,2.26-49.48,22.72-61,23.49-13.26,50,1.67,52.88,29.75C497.12,250.66,497.14,252.5,497.29,255.27Z"
          transform="translate(-15.12 -15.12)" fill="#fff"/>
    <path d="M595.15,416.71c-.36,2.71-.58,6.22-1.32,9.62-5.8,26.8-32.93,37.27-55.29,21.4-18.32-13-26.32-38-18.75-58.61,8.56-23.32,33.78-31.05,53.67-16.28C587.85,383.52,594.25,398.35,595.15,416.71Z"
          transform="translate(-15.12 -15.12)" fill="#fff"/>
    <path d="M348.14,256.8c.22-7.66,2.14-14.46,6.85-20.25,7.69-9.46,19.66-9.58,27.58-.34,9,10.49,9.64,29.55,1.35,40.62-7.33,9.8-19.08,10.51-27.56,1.62C350.51,272.32,348.42,264.74,348.14,256.8Z"
          transform="translate(-15.12 -15.12)" fill="#fff"/>
    <path d="M665.23,409c-.21,7.42-2.38,15.29-8.66,21.52-7.55,7.49-18,7.05-25-.95-9.87-11.25-9.39-32.47,1-43.2,8-8.29,19.3-7.74,26.37,1.4C663.44,393.63,665.22,400.45,665.23,409Z"
          transform="translate(-15.12 -15.12)" fill="#fff"/>
    <path d="M684.79,424.8c.38-10.46,4.23-19.38,12.93-25.66,10.68-7.71,21.33-4,24.59,8.67,3.1,12,0,22.79-8.8,31.55-4.84,4.8-10.78,7.43-17.72,5-7.18-2.52-9.74-8.54-10.73-15.49C684.87,427.57,684.88,426.23,684.79,424.8Z"
          transform="translate(-15.12 -15.12)" fill="#fff"/>
    <path d="M328.7,275.48a51.54,51.54,0,0,1-.93,5.61c-3.38,13.24-16.11,17.24-26.09,7.85-9.4-8.86-13-20.07-10.24-32.78,2.4-11.25,12.81-15.43,22.78-9.59C322.64,251.5,328.76,263.16,328.7,275.48Z"
          transform="translate(-15.12 -15.12)" fill="#fff"/>
    <path d="M281.35,302c.11,14.51-12.05,21.68-24.73,14.58-9.89-5.54-16-17.46-14.57-28.6,1.28-10.25,10-15.93,19.94-13C272.82,278.17,281.27,290,281.35,302Z"
          transform="translate(-15.12 -15.12)" fill="#fff"/>
    <path d="M772.09,442.36c-.1,13.31-9,24.75-20.17,27.08-9.76,2-17.92-3.63-18.88-13.5-1.1-11.28,3.62-20.17,12.63-26.63,5.35-3.82,11.4-5.73,17.82-2.28S771.89,436.53,772.09,442.36Z"
          transform="translate(-15.12 -15.12)" fill="#fff"/>
    <path d="M246.15,344.43c0,9.82-7.35,15.82-16.9,13.76C219,356,210,345.33,209.5,335a13.72,13.72,0,0,1,16.17-14.5C236.63,322.27,246.12,333.39,246.15,344.43Z"
          transform="translate(-15.12 -15.12)" fill="#fff"/>
    <path d="M804,485.87c0,11.14-8.91,21.72-19.85,23.61-8.77,1.52-15.56-3.85-16.05-12.67-.66-11.94,9.75-24.09,21.63-25.42C796.52,470.63,805.14,475.94,804,485.87Z"
          transform="translate(-15.12 -15.12)" fill="#fff"/>
</svg>