<svg xmlns="http://www.w3.org/2000/svg" width="994.99" height="994.99" viewBox="0 0 994.99 994.99">
    <title>events</title>
    <path d="M1010.12,513c-.19,275-223.34,497.41-498.75,497.12-274.22-.3-496.43-223.57-496.25-498.63C15.3,237.32,238.78,14.81,513.63,15.12,787.78,15.44,1010.3,238.58,1010.12,513Zm-970.37-.56C40.1,773.63,251.39,985.6,511.31,985.51c263.55-.09,474.38-211.25,474.19-474.95-.19-260-212.83-471-474.32-470.83C251.26,39.93,39.39,252.37,39.75,512.44Z"
          transform="translate(-15.12 -15.12)" fill="#fff"/>
    <path d="M512.34,522.78c-12.46,28-37.37,33.58-63.75,36.28-9.06.93-8.8.64-11.94,9.37-6.21,17.23-12,34.67-19.37,51.41-22.8,51.8-62.35,84-117,98.17-25.45,6.58-51.36,9.78-77.55,11.09-1.15.06-2.31,0-4.76,0,52.85-68.23,70.37-146.27,68.15-229.8,24.56-3.21,24.56-3.21,38.08-12,20.63,15.55,41.48,15.78,62.82-.13,8.93,7.35,19.31,11.83,31.26,11.79s22.12-4.27,31-11.73c26.07,15.77,40,15.79,63,0C533,502.94,554,503,575,487.25c20.84,15.65,41.68,15.73,62.7,0,20.83,15.73,41.83,15.78,62.92-.15,10.61,9,22.83,12.86,37.56,11.55-2.11,83.94,15.21,162.07,68.48,230.74-7.66-.49-13.9-.81-20.12-1.31-27.52-2.2-54.52-7-80.61-16.32-52.36-18.72-87.23-55-106.67-106.58-5-13.38-8.94-27.21-13-40.95-1.1-3.73-2.69-4.81-6.46-5.07-8.12-.56-16.34-1.19-24.25-3C536.25,551.78,519.33,543.74,512.34,522.78Z"
          transform="translate(-15.12 -15.12)" fill="#fff"/>
    <path d="M700.85,467.86c-7.24,19-17.15,27.14-32,26.89-14.64-.24-24.27-8.38-31-26.75-4.75,17.37-15.38,27.4-33.25,26.49-15.67-.8-25-10.42-29.28-26.7-4.77,16.75-14.68,26.73-31.39,26.77s-26.76-9.85-31.46-26.69c-4.69,16.94-14.75,26.81-31.59,26.68s-26.74-10.17-31.15-27c-4.28,16.77-14,26.7-30.62,27-17,.34-27.26-9.47-32-26.72-5,17.56-15.49,27.46-33,26.69-16.13-.72-25.57-10.58-29.64-26.76-.67,1.94-1.13,3.13-1.5,4.36-4.56,15-18.76,24.4-33.66,22.33-16-2.21-27.07-14.56-27.45-30.62-.25-10.88-.22-10.73,10.89-13,104-21.1,183.58-76.47,236.73-168.87.89-1.56,1.84-3.09,3-5,4,6.78,7.64,13.16,11.57,19.32,54.62,85.54,132.49,136.38,231.8,155.16,7.35,1.39,7.37,1.26,7.36,9,0,18.57-10.05,31.38-26.55,33.91A31,31,0,0,1,702.33,473C701.87,471.62,701.51,470.17,700.85,467.86Z"
          transform="translate(-15.12 -15.12)" fill="#fff"/>
    <path d="M611.92,248c-4,2.32-7.8,5.72-12.14,6.74a222,222,0,0,1-29.89,4.91c-12.24,1.16-24.65.71-36.85,2.12-6.85.79-13.44,3.91-20.15,6,.09.49.19,1,.29,1.47-.24-.38-.69-.76-.69-1.14,0-14.48,0-29-.14-43.43,0-3.11,1.59-4,4.13-4.49a52.29,52.29,0,0,1,28.07,1.51,159.21,159.21,0,0,1,17.1,6.92c16,7.57,31.3,17,49.81,17.78C611.61,246.94,611.77,247.48,611.92,248Z"
          transform="translate(-15.12 -15.12)" fill="#fff"/>
</svg>