<svg xmlns="http://www.w3.org/2000/svg" width="1025.24" height="1025.24" viewBox="0 0 1025.24 1025.24">
    <title>home</title>
    <path d="M550.1,194.56v6.15c0,38.34-.08,76.68.14,115a14.63,14.63,0,0,0,3.21,8.84q69.9,80.69,140.2,161a17.32,17.32,0,0,1,4.72,12.46c-.22,33.67,0,67.34-.21,101,0,4.23,1.35,6.45,5.06,8.52q98.47,54.87,196.78,110c20.3,11.38,26.43,34.82,14.14,53.46a36.79,36.79,0,0,1-47.28,12.47c-4.91-2.45-9.61-5.35-14.42-8-1.54-.85-3.14-1.62-5.58-2.87v7.24q0,111.78,0,223.54c0,6.49,0,6.5-6.5,6.5H625c-.13-2.56-.32-4.67-.33-6.78-.12-24.83.78-49.72-.5-74.49-3-59.08-53.66-105.27-112.74-104-61.73,1.36-109.6,50.17-109.74,111.92-.05,22.34,0,44.68,0,67,0,2-.19,3.9-.32,6.3H185.9c-6.51,0-6.52,0-6.52-6.48v-231c-6.7,3.76-12.41,7.06-18.2,10.21-14.5,7.89-31.64,6-43.24-4.73-18.66-17.23-15.3-46.68,7-59.52,16.17-9.32,32.55-18.28,48.83-27.39q74.82-41.88,149.67-83.67c3.29-1.84,4.68-3.81,4.66-7.75-.18-34,0-68-.21-102A16.14,16.14,0,0,1,332.25,486q70.61-80.74,140.9-161.75a11.84,11.84,0,0,0,2.87-7c.17-39.51.13-79,.11-118.52,0-1.14-.15-2.27-.27-3.91-2.1-.09-4-.26-6-.25-20.67.1-41.34.35-62,.31-25.06,0-42.48-22.22-36.74-46.49a36.93,36.93,0,0,1,35.78-28.15c20.49,0,41,.36,61.49.52,7.39.06,7.44,0,7.39-7.15-.14-20.17-.48-40.33-.45-60.49,0-22.28,16.3-38.84,37.76-38.85s37.74,16.56,37.78,38.83c0,20.49-.11,41-.59,61.48-.12,5.27,1.61,6.4,6.51,6.29,20.66-.43,41.33-.59,62-.64,16.33,0,29.89,9.76,35.48,25.26,5.15,14.28.35,31.16-11.85,41.08a35.64,35.64,0,0,1-23,8.31c-21,0-42-.21-63-.32ZM513,679c42.38,0,76.92-34.31,76.92-76.49A76.79,76.79,0,1,0,513,679Z"
          transform="translate(0)" fill="#fff"/>
</svg>