<svg xmlns="http://www.w3.org/2000/svg" width="994.99" height="994.99" viewBox="0 0 994.99 994.99">
    <title>joinus</title>
    <path d="M512.46,1010.12c-275,0-497.43-223-497.34-498.54C15.22,237.65,238.51,15,513,15.12s497.22,223.18,497.08,497.8S787.12,1010.15,512.46,1010.12ZM985.49,513C986.08,252.05,774.84,40.65,512.6,39.73c-259-.9-471.78,211-473,469.78C38.38,771.38,249.46,984.67,510.39,985.45,773.2,986.22,984.91,775.44,985.49,513Z"
          transform="translate(-15.12 -15.12)" fill="#fff"/>
    <path d="M514,411.54q43.5,0,87,0a106.52,106.52,0,0,1,12,.56C628,413.84,637.2,423,639,438a114.4,114.4,0,0,1,.7,13.48q.08,59.25,0,118.51c0,12-.21,24-.43,36-.34,19.11-6.8,27.2-25.35,31.65a79,79,0,0,1-11.81,2c-3.46.28-4.4,1.75-4.34,5.06.18,10.5.07,21,.07,31.5,0,43.68-.07,87.35.1,131,0,4.17-1.3,5.76-5.24,6.75a323.44,323.44,0,0,1-157.87.56c-4.76-1.16-5.84-3.17-5.82-7.76.16-53.34,0-106.68.2-160,0-4.34-1.16-6.17-5.52-6.86a87.53,87.53,0,0,1-15.46-3.9c-10.18-3.61-16-11-17.44-21.77a58.48,58.48,0,0,1-.52-7.47q.09-81.53.24-163c0-1.33,0-2.66.09-4,1.07-17.44,10.9-27.22,28.41-27.78,12.16-.38,24.33-.37,36.5-.41C475,411.49,494.49,411.54,514,411.54Z"
          transform="translate(-15.12 -15.12)" fill="#fff"/>
    <path d="M639,797.19v-5q.16-50.25.32-100.5c0-10,3.63-18,11.74-24.13,20.49-15.61,30.44-36.44,30.36-62.21q-.33-93.25-.49-186.51c0-2,0-4,0-6.51,1.89-.13,3.48-.35,5.08-.35,29.5,0,59-.11,88.5,0,19.48.09,29.66,10.3,29.68,29.72q0,83.75-.12,167.5c0,15.56-8,25.34-23.21,28.67a79.18,79.18,0,0,1-13.36,1.81c-3.91.18-5,1.72-5,5.51.17,17.5,0,35,.14,52.5a14.37,14.37,0,0,1-3.49,10A321.71,321.71,0,0,1,644.7,795.52c-1.21.55-2.43,1.09-3.68,1.56A8.94,8.94,0,0,1,639,797.19Z"
          transform="translate(-15.12 -15.12)" fill="#fff"/>
    <path d="M386.75,797.94c-1.77-.65-3.17-1.07-4.49-1.66a316.39,316.39,0,0,1-112.87-84.91A14.33,14.33,0,0,1,266.3,703q-.41-28.49-.05-57c0-4-1.23-5.39-5.11-6.12a115.36,115.36,0,0,1-17.3-4.75c-8-2.81-13.08-8.6-14.65-16.94a92.87,92.87,0,0,1-1.87-16.84q-.15-76.49.13-153A81.86,81.86,0,0,1,229.32,432c2.16-10.35,8.89-16.58,19.12-18.75a72.43,72.43,0,0,1,14.36-1.65c27.16-.19,54.32-.06,81.48-.27,4.27,0,4.38,2,4.37,5.23q-.13,64.25-.13,128.47c0,21.33.44,42.67.09,64-.38,23.25,9.1,41.67,26.58,56.18,7.88,6.55,11.81,13.95,11.71,24.48-.34,34.49,0,69,.11,103.47C387,794.62,386.86,796.06,386.75,797.94Z"
          transform="translate(-15.12 -15.12)" fill="#fff"/>
    <path d="M283,320.61a66.53,66.53,0,0,1,66.81-66.68c36.75-.07,66.53,30,66.46,67-.06,36.15-30.13,66.1-66.4,66.12C312.65,387.11,283,357.67,283,320.61Z"
          transform="translate(-15.12 -15.12)" fill="#fff"/>
    <path d="M611.78,320.41a66.31,66.31,0,0,1,66.77-66.64c35.86,0,66.43,30.52,66.44,66.34,0,36.39-30.22,67-66.22,67.08C641,387.27,611.88,358.19,611.78,320.41Z"
          transform="translate(-15.12 -15.12)" fill="#fff"/>
    <path d="M580.35,320.69c0,37.36-29.15,66.45-66.7,66.49-36.31.05-65.84-30.08-65.79-67.1.06-36.67,29.63-66.36,66-66.27C551.11,253.91,580.32,283.3,580.35,320.69Z"
          transform="translate(-15.12 -15.12)" fill="#fff"/>
</svg>