<svg xmlns="http://www.w3.org/2000/svg" width="860.74" height="995.02" viewBox="0 0 860.74 995.02">
    <title>logo</title>
    <path d="M513.86,13.77c2.33,2.66,4.51,5.12,6.66,7.62C556,62.68,597,97,646.37,120.7c35.18,16.9,72.29,26.94,111,31.49,36.25,4.27,72.51,3.15,108.83,1.34,21.28-1.07,42.61-1.13,63.92-1.75,3.85-.12,4.91,1.54,5.37,5.22,7.22,58.17,10.3,116.51,7.51,175.09-6.88,144.72-45.72,279.64-124.85,401.81Q710.56,900,538,997.51c-5.65,3.19-11.69,5.74-17.2,9.15-4.8,3-8.79,2.69-13.78.13-42.9-21.95-82.84-48.44-120.53-78.34C301.88,861.32,232.73,781,180.71,686.19c-39.1-71.26-65.85-147-81.38-226.73-12-61.56-17-123.76-15.92-186.43a1071.74,1071.74,0,0,1,8.49-117.1c.37-2.9,1.43-4.12,4.34-4.07,16.31.29,32.65,0,48.93.84,36.13,1.84,72.24,3.92,108.41,1.21q129.76-9.72,223.08-100.45C488.6,41.86,499.48,29.18,510.84,17Zm105,208.3V350c-.92-1.43-1.2-3.06-1.88-4.51-4.13-8.86-7.59-18.17-12.75-26.4-6.12-9.76-15.39-15.56-27.52-15.53-14.67,0-29.34.05-44-.06-3.12,0-4.48.84-4.43,4.23.29,20.82-.32,41.7.77,62.48,2,38.65,15.68,73,40.86,102.59,21.56,25.34,48.37,43.69,78,58.08,39.47,19.13,81.33,30.54,124.46,37.46,27.29,4.38,54.66,8.24,82.43,7.19a6.07,6.07,0,0,0,4.38-2.57A180.23,180.23,0,0,0,868.11,555c26.25-64.08,40.46-131.17,47.75-199.7,3.06-28.75,3.6-57.84,3.91-86.79a369.2,369.2,0,0,0-9.12-84.19c-2-9.27-2.06-9.25-11.71-8.36-2,.18-4,.08-6,.24a578.71,578.71,0,0,1-96.83,0,466.44,466.44,0,0,1-106.88-21.38C624.67,133.75,568.31,98.79,518.17,53.37c-1.43-1.3-2.92-2.52-4.47-3.86-1.7,1.47-3,2.53-4.19,3.64-42.83,38.9-90.42,70.33-144.26,92-77.71,31.21-158.5,38.24-241.13,30.41-4.36-.41-5.69.73-6.61,4.8-10.27,45.78-11.84,92.13-9.14,138.71a814,814,0,0,0,30.27,176.48c7.31,25.66,15.74,50.91,27.8,74.85,2.28,4.53,5,6,10.06,5.8,52.85-2.61,104.73-10.61,155-27.49,38.9-13,75.19-31,105.72-59,34.29-31.52,53.84-70.46,56.89-117,1.35-20.76.69-41.64.94-62.47,0-2,0-3.94,0-6a20.26,20.26,0,0,0-3.34-.62c-15.67,0-31.34,0-47,.12-8.29.09-15.06,3.84-20.79,9.6-8.72,8.75-13.54,19.67-17.21,31.22-.59,1.85-1.19,3.71-2.21,6.88V220c1,3.07,1.63,4.94,2.25,6.81,4.5,13.57,11.33,25.6,22.94,34.4,6.93,5.24,14.46,8.43,23.55,8.06,12-.48,24-.11,36-.13,1.77,0,3.54-.18,5.82-.3v-5.87c0-13.84-.52-27.7.16-41.5.55-11.1-3.82-19.42-12.53-25.07-9-5.85-18.88-10.42-28.4-15.51-1.35-.73-2.8-1.27-5-2.26H574.56c-3.6,1.48-5.86,2.39-8.11,3.33-11.28,4.71-22.17,10.06-30.9,18.94a23.53,23.53,0,0,0-7.23,17.48c.18,15,0,30,.07,45,0,1.78.21,3.56.35,5.76,14.28,0,28.1-.28,41.9.11,7.94.22,15.21-1.69,20.91-6.7a101.14,101.14,0,0,0,17.34-19C613.35,236.88,615.81,228.91,618.91,222.07ZM585.54,778.35c-1.1-2.39-1.77-4-2.58-5.59-6.26-12-12.45-24-18.89-35.81a7.16,7.16,0,0,1,0-7.8c6.42-11.86,12.62-23.86,18.87-35.82.81-1.54,1.45-3.18,2.5-5.5h-6.33c-11.83,0-23.67-.18-35.5.1-4.16.09-6.63-1.11-8.76-4.82-6.58-11.4-13.56-22.57-20.41-33.81-1-1.62-2.18-3.13-3.74-5.36-1.5,2.2-2.57,3.63-3.49,5.14-7,11.52-14.14,23-20.95,34.65-1.85,3.18-4,4.25-7.58,4.18-11-.22-22-.08-33-.08H436c1.16,2.47,1.86,4.1,2.68,5.67,6.18,11.82,12.29,23.66,18.62,35.39a7.71,7.71,0,0,1,.05,8.3C451,749.05,444.77,761.05,438.52,773c-.79,1.51-1.4,3.1-2.4,5.34,15.14,0,29.29.09,43.43-.07a6.42,6.42,0,0,1,6.39,3.57c7.14,12,14.46,24,21.75,35.92.88,1.45,1.93,2.8,3.31,4.78,6.44-10.6,13.31-20,18.1-30.32,5.31-11.46,12.81-15.58,25.25-14.12C564.32,779.29,574.55,778.35,585.54,778.35Z"
          transform="translate(-83.28 -13.77)" fill="#fff"/>
    <path d="M326,403.92c-14.79,0-28.59.11-42.39-.08-3.59,0-5.71,1-7.57,4.18-6.8,11.65-13.91,23.11-20.92,34.64-.85,1.39-1.77,2.73-3,4.62-1.19-1.72-2.16-3-3-4.34-7.18-11.81-14.42-23.59-21.46-35.48a6.43,6.43,0,0,0-6.37-3.61c-12.49.16-25,.07-37.48.07h-5.57c1.07-2.3,1.74-3.94,2.56-5.51,6.17-11.81,12.26-23.65,18.61-35.36,1.69-3.12,1.77-5.58,0-8.75-6.45-11.84-12.61-23.84-18.85-35.8-.74-1.42-1.35-2.92-2.38-5.18h11.48c10.16,0,20.32-.16,30.48.09,3.78.09,6-1,8-4.38,7.56-12.93,15.47-25.65,23.72-39.23,1.28,1.89,2.28,3.26,3.16,4.71,7.11,11.66,14.27,23.29,21.2,35.05,1.66,2.8,3.51,3.87,6.77,3.83,14-.17,28-.07,42.81-.07-1,2.18-1.65,3.78-2.45,5.31-6.24,12-12.41,23.95-18.83,35.81a7.69,7.69,0,0,0-.05,8.3c6.36,11.71,12.44,23.56,18.61,35.37C324,399.71,324.73,401.34,326,403.92Z"
          transform="translate(-83.28 -13.77)" fill="#fff"/>
    <path d="M701,313.32c13.75,0,26.39-.43,39,.18,6.59.32,10.13-1.88,13.28-7.56,6.68-12.06,14.18-23.67,21.73-36.09,1.23,1.77,2.2,3,3,4.36,6.85,11.24,13.87,22.37,20.39,33.79,2.4,4.2,5.14,5.6,9.91,5.45,11.65-.38,23.32-.13,35-.13H849c-.94,2.12-1.51,3.6-2.25,5-5.93,11.37-11.61,22.87-18,34-2.68,4.68-2.45,8.21.12,12.77,6.21,11,11.86,22.36,17.71,33.58.75,1.44,1.37,2.94,2.44,5.24H837.6c-10.49,0-21,.13-31.48-.08-3.3-.07-5.1,1.12-6.73,3.88-6.94,11.76-14.1,23.39-21.19,35.06-.84,1.37-1.78,2.68-3.09,4.65-3.89-6.31-7.44-12.06-11-17.83-4.25-7-8.7-13.83-12.59-21-2.06-3.79-4.6-4.87-8.75-4.79-13.48.26-27,.1-41.35.1.94-2.09,1.55-3.69,2.34-5.2,6.09-11.66,12-23.39,18.43-34.89,2.13-3.85,1.94-6.8-.11-10.56C715.1,340.43,708.43,327.4,701,313.32Z"
          transform="translate(-83.28 -13.77)" fill="#fff"/>
</svg>