<svg xmlns="http://www.w3.org/2000/svg" width="994.99" height="994.99" viewBox="0 0 994.99 994.99">
    <title>marriage</title>
    <path d="M512.76,15.12c274.56,0,497.36,222.92,497.36,497.52,0,275-223.07,497.66-498.39,497.48-274.5-.18-496.91-223.56-496.61-498.76C15.43,237.54,238.51,15.09,512.76,15.12ZM985.49,512.64C985.93,251.75,774.4,40.36,512.27,39.73,253.41,39.11,40.91,250.79,39.61,509.35,38.3,771.23,249.3,984.57,510.22,985.45,773.22,986.33,985.06,775.34,985.49,512.64Z"
          transform="translate(-15.12 -15.12)" fill="#fff"/>
    <path d="M495.62,424.57a157.46,157.46,0,0,0-21.74,42c-29.74,89.34,32.17,184.18,126,192.89a147.83,147.83,0,0,0,162-144.59c1.55-75.59-56.87-141.5-132.06-149-1.49-.15-3-.65-4.46-.45-10.27,1.49-16.39-3.56-22.54-11.44-15.46-19.86-34.54-36.05-55.59-49.86-1.24-.82-2.45-1.69-4.48-3.09,2.11-.77,3.55-1.36,5-1.82C677.5,259,812.69,342.6,834.8,476.74c20.62,125-68.15,242.79-194.14,257.58-119,14-227-66.63-247-185.15-9.19-54.55,1.36-105.73,30.06-153.11,1.69-2.79,3.34-3.83,6.79-3.25,22.53,3.79,42.77,12.47,60.24,27.32C492.25,421.42,493.68,422.8,495.62,424.57Z"
          transform="translate(-15.12 -15.12)" fill="#fff"/>
    <path d="M531,600.89c6.29-12.81,13.78-25.17,18.69-38.48,33-89.47-28.42-187-123.36-196.6a147.85,147.85,0,0,0-163.14,144.4c-1.66,75.85,57.65,142.36,133,149.17,1.66.15,3.38.7,5,.45,9.49-1.53,14.83,3.54,20.37,10.58,15.67,19.92,34.69,36.38,55.86,50.33,1.38.91,2.74,1.85,5,3.36-2.11.78-3.51,1.38-5,1.83-129.31,40.27-265-43.4-287-176.92C170.1,425.58,255,309.53,378.9,291.44c120.67-17.62,234.25,65.72,252.88,185.94,8.33,53.74-1.79,104.1-29.8,150.82-2.05,3.43-4,4.79-8.3,4-22.64-4.1-43-13-60.4-28.17-1-.87-1.95-1.81-2.88-2.76a2.66,2.66,0,0,1-.38-.89Z"
          transform="translate(-15.12 -15.12)" fill="#fff"/>
</svg>