<svg xmlns="http://www.w3.org/2000/svg" width="997.86" height="686.41" viewBox="0 0 997.86 686.41">
    <title>services</title>
    <path d="M539.47,649.39c5.83-9.46,11.63-18,16.56-27,61.82-113.16,18.44-252.87-96.52-311.2-89.83-45.58-200.66-25.48-268.38,49.12-45.37,50-64.95,109-58.84,176.17C141.45,637.25,221.6,721.86,322,737.13c11.66,1.77,23.56,1.93,35.32,3.08,2.06.2,4.74,1,5.88,2.54a388.82,388.82,0,0,0,102.14,93.92c.54.35,1,.84,2.16,1.84-2.09.75-3.68,1.39-5.31,1.91-35.72,11.32-72.38,17.35-109.78,16.33-84.22-2.31-158.84-30.41-222.07-86.57C68.68,715.45,30.65,647.09,18.78,565.54,3.57,461.05,30.5,367.72,99.73,287.77c54.3-62.72,123.31-101,205.38-113,105-15.41,198.86,11.58,279.1,81.4,62.14,54.08,99.71,122.75,112.38,204.17,13,83.63-3.49,161.71-47.76,233.9-1.59,2.6-3.13,4.24-6.68,3.69-37.84-5.91-71.54-20.6-100-46.62A23.58,23.58,0,0,0,539.47,649.39Z"
          transform="translate(-14.66 -170.45)" fill="#fff"/>
    <path d="M559.28,188.55a333.26,333.26,0,0,1,74.51-16.21c55.18-5.42,109.12.52,160.41,21.81,114.93,47.72,187.29,132.51,211.7,254.71,32.84,164.42-59.12,326.65-216,386-121.5,45.93-260.72,18.18-355-70.92-56.83-53.69-92.13-119.13-104.27-196.33-13.18-83.81,3.15-162.07,47.5-234.45,1.68-2.75,3.2-4.49,7-3.9,38.05,5.9,71.81,20.84,100.3,47.06a16.93,16.93,0,0,1,1.4,1.41c.21.25.29.6-.08-.21-8.26,15.08-17,29.11-23.94,44-37.09,79.58-21.81,177.79,37.6,242.72,47.53,51.94,106.81,78.74,177.07,75.44,88.11-4.16,154.28-46.7,194.32-125.26,56.81-111.45,11-246.85-100.64-303.2A221.58,221.58,0,0,0,672,287.09c-4.36,0-7.19-1.2-10-4.85a380.5,380.5,0,0,0-98.81-90.94C562.12,190.6,561.08,189.81,559.28,188.55Z"
          transform="translate(-14.66 -170.45)" fill="#fff"/>
</svg>