<svg xmlns="http://www.w3.org/2000/svg" width="993.59" height="818.43" viewBox="0 0 993.59 818.43">
    <title>mytransactions</title>
    <path d="M455.47,464.93q-68.22,0-136.46,0c-20.51,0-35.41,11.5-40.42,31.19a42.9,42.9,0,0,0-.89,10.4c-.07,30.32,0,60.65-.12,91A48.19,48.19,0,0,1,276,609.83c-2.43,9-9.56,12.11-17.7,7.53a51.71,51.71,0,0,1-10.9-8.64q-69.94-69.66-139.74-139.46Q68.9,430.59,30.14,392c-18.77-18.8-18.74-42.08.06-60.86Q138.59,222.8,247.09,114.64a59.78,59.78,0,0,1,10.84-8.73c7.85-4.78,15.49-1.72,18,7.11a46.77,46.77,0,0,1,1.69,12.29c.15,27.33.81,54.68-.14,82-.88,25.4,19,43.4,43,43.23,90.13-.61,180.28-.26,270.42-.23,20,0,35.54,12.14,40.32,31.48a35.31,35.31,0,0,1,.82,8.41q.07,67.49,0,135c0,22.47-17.47,39.73-40.06,39.77Q523.71,465,455.47,464.93Z"
          transform="translate(-16.08 -103.66)" fill="#fff"/>
    <path d="M571.87,775.49q-68.49,0-137,0c-20,0-35.54-12.14-40.32-31.48a35.31,35.31,0,0,1-.82-8.41q-.08-67.49,0-135c.05-22.47,17.48-39.75,40.07-39.77q136.47-.08,272.93-.05c18,0,32.44-9.2,38.42-25a45.93,45.93,0,0,0,2.8-15.55c.26-30.66.07-61.32.21-92a48.19,48.19,0,0,1,1.61-12.31c2.43-9,9.56-12.11,17.7-7.53a52,52,0,0,1,10.9,8.64q69.95,69.65,139.74,139.46,38.73,38.67,77.49,77.31c18.77,18.8,18.74,42.08-.06,60.86Q887.17,803,778.67,911.12a59.78,59.78,0,0,1-10.84,8.73c-7.85,4.78-15.49,1.72-18-7.11a46.77,46.77,0,0,1-1.69-12.29c-.15-28,0-56-.09-84-.05-24.2-16.63-40.91-40.77-41Q639.59,775.42,571.87,775.49Z"
          transform="translate(-16.08 -103.66)" fill="#fff"/>
</svg>