<svg xmlns="http://www.w3.org/2000/svg" width="994.99" height="994.99" viewBox="0 0 994.99 994.99">
    <title>passing</title>
    <path d="M1010.12,512.87c-.13,275-223.24,497.49-498.62,497.25-274.25-.25-496.43-223.38-496.38-498.49C15.18,237.51,238.67,14.86,513.49,15.12,787.68,15.39,1010.24,238.46,1010.12,512.87Zm-24.63,0C986.05,252,774.77,40.6,512.55,39.73c-259-.86-471.76,211.08-472.94,469.84C38.41,771.21,249.18,984.4,509.94,985.45A472.45,472.45,0,0,0,985.49,512.92Z"
          transform="translate(-15.12 -15.12)" fill="#fff"/>
    <path d="M362.67,611.56c-9.38-4.31-17.88-8.06-26.24-12.1-19.4-9.37-38.35-19.54-54.88-33.56a83.75,83.75,0,0,1-13.1-13.65c-11.34-15.22-5.76-31.94,12.29-38.11,9.3-3.18,18.47-2,27.5.89,5.68,1.81,11.16,4.24,17.2,6-1.27-1-2.53-2.06-3.83-3-18.66-14.11-36.5-29.11-51.15-47.52-9.44-11.87-17.33-24.67-19.5-40-.87-6.13-.41-12.57.31-18.77.68-5.93,3.35-7.92,9.26-7.07,6.06.87,12.38,1.84,17.9,4.3,22.34,10,44.76,19.89,66.51,31.09,23.54,12.12,46.57,25.29,69.42,38.69,11.31,6.63,21.72,14.78,32.79,22.42,6.61-4.88,13.81-10.17,21.34-15.72-41-21.78-63.34-55.36-62.3-102.49.68-30.73,13.38-56.51,36.45-76.78C489,265.39,560,272.67,597.42,321.67c41.63,54.47,22.38,135.21-40.52,163.7L578.09,501c48.42-33.95,100.11-61.47,153.44-86,9.74-4.49,20.33-7.4,30.79-10,8.37-2.06,10.73.1,12.41,8.5,2.61,13.1-1.07,25.16-6.74,36.69-8.77,17.8-22.1,32.06-36.71,45.1-10,9-20.66,17.3-30.91,26.45,1.46-.66,2.93-1.33,4.4-2,11.54-5.14,23.33-9.58,36.19-6.49a34.91,34.91,0,0,1,12.86,6.21c10.51,8.14,12.78,19.26,4.85,29.88a118,118,0,0,1-22.07,22.13c-18.54,14.37-39.6,24.57-60.9,34.18-4.06,1.83-8.13,3.61-12.88,5.72,5.86,2.74,11.13,4.79,16,7.59A81.2,81.2,0,0,1,693,629c5.54,5.06,5.46,9.85.06,15.06-4.66,4.49-9.47,9.13-15,12.34-12.93,7.51-26.24,14.41-39.64,21.06-3.5,1.74-4.93,3.09-4.72,7.22.76,14.81,1.13,29.64,1.32,44.46A107.18,107.18,0,0,1,633.69,744c-3.7,28.78-21.59,45.19-47.75,54-29.17,9.79-59.33,12.87-89.81,10.34-16.84-1.4-33.53-5.11-50.18-8.36-5.64-1.1-11-3.73-16.37-6.05-23.46-10.18-36.58-28.34-38.14-53.59-1.14-18.57-.16-37.27.25-55.91.09-3.84-.86-5.47-4.46-6.84-18.34-7-35.37-16.41-50.41-29.14-11.54-9.77-11.18-15.9,1.35-24.48a104.7,104.7,0,0,1,11.71-6.68C353.72,615.34,357.74,613.75,362.67,611.56Z"
          transform="translate(-15.12 -15.12)" fill="#fff"/>
    <path d="M512.68,274.53c-14.11-.31-28.06-1.59-41.34-6.48a57.68,57.68,0,0,1-16.13-8.7c-9.79-7.88-10.08-20.38,0-27.81a71.78,71.78,0,0,1,23.2-10.94,129.19,129.19,0,0,1,68.67,0A71.59,71.59,0,0,1,568,229.64c12.87,8.55,12.52,22.79-.14,31.75-10.38,7.34-22.49,9.86-34.77,11.5C526.33,273.79,519.48,274,512.68,274.53ZM465,245.91c3.08,1.75,5.61,3.73,8.48,4.72a117.93,117.93,0,0,0,78.31.1c3-1,5.6-3.11,8.49-4.76C547,230.15,480.72,229.39,465,245.91Z"
          transform="translate(-15.12 -15.12)" fill="#fff"/>
</svg>