<svg xmlns="http://www.w3.org/2000/svg" width="992" height="991.89" viewBox="0 0 992 991.89">
    <title>profile</title>
    <path d="M466.73,1010c-80.94-.94-193.89-43.13-288.08-130.46C66.9,775.93,13.28,646.36,18.53,494.17c4.36-126.57,51.89-236.43,140.68-326.7C261.86,63.13,387.86,13.35,534.08,18.48,655.07,22.72,761.32,66.53,850,149c111.57,103.83,165,233.37,159.87,385.55C1001.11,792.34,787.48,1010.65,466.73,1010ZM782.38,838.75c-8.88-3.73-17.44-7.27-26-10.91C726.26,815,695.88,802.54,666,788.93c-17-7.77-32.58-18.57-44-33.79-5.28-7-8.51-15.59-12.67-23.46-.66-29.31-1.34-58.61-1.89-87.92a6.5,6.5,0,0,1,1.89-4.68c9.1-7,14.94-16.58,20.42-26.26,13.66-24.11,23.34-49.7,27.48-77.26.23-1.54,1.78-3.78,3.11-4.11,10.51-2.58,17.38-9.52,22.73-18.31,7.9-12.94,11.08-27.43,12.91-42.21,2.15-17.53-.7-33.59-15-45.86-.89-.76-1.27-3-.88-4.24a466.52,466.52,0,0,0,20.37-102.16c2.39-29.06,1.77-57.95-6.12-86.27-7.43-26.65-20.82-49.33-44.25-65.11-13.92-9.37-29.4-14.67-45.84-17.57-2.21-.39-5-1.61-6.13-3.34a64.67,64.67,0,0,0-21.68-19.62c-17.1-9.87-35.91-13.89-55.32-15.64a269.84,269.84,0,0,0-98,9.15c-57.42,16.19-95.62,52.25-111.64,110.39-10.58,38.4-10.5,77.48-4.95,116.48,3.46,24.36,9.16,48.39,13.67,72.61.34,1.85-.21,4.73-1.48,5.88A42.12,42.12,0,0,0,304.88,451c-3,19.42,1.46,37.84,9.07,55.47,5.14,11.93,12.88,21.82,26.64,25.06,1.11.26,2.41,2.19,2.6,3.49a205,205,0,0,0,19.67,61.63c7.69,15.53,15.74,30.91,29.35,42.42a6.12,6.12,0,0,1,1.75,4.25c-.23,26-.88,52-.8,77.94,0,14.13-6,25.34-14.67,35.6-13,15.3-29.38,26.27-47.38,34.37C303.33,803.73,275,815.07,247,826.92c-3.14,1.32-6.26,2.71-9.63,4.18C394,973.43,636.4,966.94,782.38,838.75Z"
          transform="translate(-18.18 -18.12)" fill="#7E5232"/>
</svg>