<svg xmlns="http://www.w3.org/2000/svg" width="810.56" height="937.23" viewBox="0 0 810.56 937.23">
    <title>borderedlogo</title>
    <path d="M513.87,43c2.29,2.61,4.35,4.93,6.37,7.28,35.43,41.23,76.63,75,126.6,97.24,36.95,16.47,75.81,25,116.06,27.7,32.66,2.2,65.23.23,97.82-1.41,15-.76,30.09-.51,45.14-.83,3.65-.08,4.62,1.56,5,5,6.81,54.92,9.7,110,7.05,165.31C912,467.33,881,584.39,818.16,692.15c-64.65,110.79-152.44,199-261.9,265.72-12.3,7.5-25.26,13.94-37.84,21-3.19,1.8-5.87,1.67-9.14,0-40.83-20.52-78.7-45.62-114.46-73.92-80-63.29-145.4-139.05-194.51-228.6-43.87-80-71.15-165.43-83.71-255.67a836.28,836.28,0,0,1-7-161c1.51-27.54,4.69-55,7-82.49.28-3.29,1.79-4.28,4.75-4.22,15.36.28,30.74.06,46.08.85,33.69,1.74,67.38,3.66,101.11,1.15,76.68-5.7,143.94-33.79,200.75-85.76,14.54-13.31,27.55-28.3,41.26-42.52C511.54,45.58,512.54,44.42,513.87,43Zm0,33.6c-1.51,1.69-2.49,2.89-3.59,4C495,96,480.5,112.48,464.1,126.73,415.73,168.76,359,192,295.34,198.46c-34.17,3.44-68.32,1.57-102.5-.21-14.39-.75-28.83-.57-43.25-.82-2.7-.05-4.35.74-4.61,3.89-2.1,25-5,50-6.38,75a785.75,785.75,0,0,0,6.25,149.79C155,500.06,175.76,570.8,208.61,637.88c43,87.82,102.7,162.61,177.37,225.54,37.92,32,78.52,60,122.85,82.44a9.82,9.82,0,0,0,10,0,607.29,607.29,0,0,0,93-58.74C701.64,819,772.2,734.88,821.12,633.06c45.09-93.88,66.1-193.41,68.52-297.16,1.05-44.94-1.75-89.7-7.22-134.3-.36-2.92-1.41-4.21-4.35-4.16-14.1.24-28.23,0-42.31.7-30.25,1.54-60.47,3.4-90.77,1.34-37.42-2.54-73.55-10.46-107.89-25.82-46.3-20.71-84.46-52-117.29-90.24Z"
          transform="translate(-108.36 -42.95)" fill="#fff"/>
    <path d="M605.87,371.24V258.53l-.74-.18c-.47,1.37-1,2.72-1.4,4.1-3.8,11.91-9.71,22.47-19.72,30.3-6.2,4.84-13,7.78-21.25,7.45-10.19-.41-20.41-.33-30.6,0-4.51.15-5.53-1.47-5.45-5.64.23-12.24.4-24.49,0-36.72-.3-8.7,2.81-15.68,9.75-20.21,8.22-5.38,17.14-9.67,25.78-14.38a14.52,14.52,0,0,0,3.88-2.41H456.74c2.34,1.12,3.51,1.62,4.64,2.22,8.41,4.5,17.12,8.52,25.11,13.67,7.51,4.84,11.31,12,10.84,21.58-.58,11.74-.13,23.53-.14,35.3,0,6.48,0,6.48-6.25,6.49-9.89,0-19.79-.32-29.66.09-8.41.35-15.31-2.74-21.62-7.73-10-7.9-15.7-18.57-19.52-30.45a14.91,14.91,0,0,0-1.73-4V371.7l.39.2c.42-1.46.81-2.93,1.26-4.38,3.3-10.58,7.46-20.69,15.52-28.68a26.92,26.92,0,0,1,19.82-8.34c12.55.08,25.1,0,37.66,0,2.06,0,4.2-.25,4.13,2.94-.48,21.64.5,43.42-1.67,64.88-4.36,43-25.76,77.07-59.4,103.66-29.68,23.47-63.81,37.83-99.85,48.1-38.52,11-77.9,16.46-117.85,18.42-3.93.19-5.92-1.23-7.62-4.57-10.32-20.23-17.59-41.61-23.79-63.35-18.31-64.18-28.63-129.52-28-196.4a401.27,401.27,0,0,1,8.47-80.36c1-4.56,2.66-5.57,7.23-5.14,70.48,6.66,139.45.62,205.94-25.34,48.25-18.83,90.82-46.71,129.1-81.37,1.25-1.14,2.54-2.24,3.87-3.4,8.26,7,16.16,13.91,24.29,20.55,56,45.72,119.55,74.88,191.06,86.37,33.28,5.34,66.77,6.44,100.37,4.82,8.3-.4,16.58-1.14,24.86-1.93,3.27-.31,4.7.68,5.45,4a370.44,370.44,0,0,1,8.66,73.18C870,373.82,857.46,449.9,833,524c-4.6,13.94-11.14,27.25-16.88,40.81-.83,2-1.8,3.45-4.85,3.23-13.57-1-27.24-.94-40.76-2.33-36.63-3.78-72.57-11-107.32-23.5-30.82-11.06-59.62-25.75-84.21-47.8-34.43-30.88-51.37-69.7-52.12-115.74-.23-14.27.14-28.56-.14-42.84-.08-4.46,1.44-5.54,5.64-5.44,11.45.25,22.92.35,34.36,0,10.88-.33,19.7,3.83,25.3,12.68,5,7.84,8.23,16.77,12.2,25.24a21.63,21.63,0,0,1,.9,3ZM220.41,338.77c1,2.14,1.52,3.55,2.22,4.89,5.09,9.73,10,19.59,15.42,29.11,2.43,4.23,2.23,7.46-.11,11.59-5.34,9.41-10.17,19.12-15.18,28.71-.76,1.47-1.39,3-2.37,5.13,12.71,0,24.62.16,36.52-.09,3.65-.08,5.64,1.17,7.44,4.26,5.75,9.91,11.81,19.63,17.76,29.42.85,1.39,1.8,2.72,3,4.59,1.27-1.91,2.17-3.15,3-4.46,6.11-10.05,12.29-20.07,18.25-30.22a6.39,6.39,0,0,1,6.41-3.57c8.79.2,17.58.07,26.37.07h10.77c-1-2.14-1.58-3.56-2.29-4.91-5.22-10-10.32-20.1-15.79-30-1.88-3.39-2-6-.11-9.48,5.57-10,10.74-20.24,16-30.39.68-1.31,1.27-2.66,2.21-4.67-12.77,0-24.68-.15-36.58.09-3.65.07-5.66-1.18-7.45-4.28-5.25-9.1-10.83-18-16.29-27-1.35-2.22-2.72-4.43-4.51-7.33-5.17,8.51-9.84,16.27-14.6,24-3,4.79-5.08,11.27-9.42,13.69s-11,.82-16.61.87C236.72,338.82,228.92,338.77,220.41,338.77Zm457.57,0a6.86,6.86,0,0,0,.11,1.73c3.83,7.38,7.72,14.73,11.52,22.13,2.71,5.29,7.38,10.64,7.36,16s-4.73,10.64-7.46,15.93c-3.94,7.62-7.94,15.21-12.24,23.44,2.28.11,3.78.23,5.28.24,10.67,0,21.34.11,32-.07A6.4,6.4,0,0,1,721,421.7c6,10.15,12.13,20.17,18.25,30.22.85,1.38,1.82,2.68,3.12,4.58,7.29-12,14.21-23.19,20.9-34.52,1.63-2.75,3.43-3.92,6.71-3.85,10.67.2,21.34.09,32,.06,1.46,0,2.92-.2,4.86-.34-.94-2-1.56-3.42-2.27-4.78-5.16-9.87-10.18-19.82-15.6-29.55-2-3.54-2.15-6.28-.11-9.92,5.54-9.84,10.61-19.94,15.85-30,.7-1.34,1.26-2.74,2.23-4.88h-5.76c-10.35,0-20.71-.1-31.07.06-3.17.05-5.13-.87-6.79-3.73-6-10.29-12.31-20.43-18.51-30.61-.75-1.22-1.63-2.38-2.78-4-7.12,11.72-13.93,22.63-20.39,33.74-2,3.41-4.18,4.77-8.17,4.68C701.72,338.6,690,338.77,678,338.77Z"
          transform="translate(-108.36 -42.95)" fill="#fff"/>
    <path d="M511.2,784c-5.55-9.12-11.39-17-15.4-25.76C491,747.69,484.13,743.47,472.47,745c-8.4,1.11-17.08.22-26.48.22,5.59-10.71,10.22-20.84,16-30.25,4.09-6.61,3.9-11.81-.07-18.32-5.68-9.34-10.3-19.32-15.77-29.79,2.28-.14,3.88-.33,5.48-.33,10.36,0,20.71-.17,31.06.06,3.57.08,5.68-1,7.51-4.13,5.72-9.91,11.78-19.63,17.73-29.41.87-1.42,1.85-2.77,3.22-4.83,1.35,2,2.32,3.32,3.18,4.72,6,9.91,12.12,19.8,18,29.8,1.62,2.75,3.46,3.9,6.73,3.85,12.06-.2,24.11-.08,37-.08-.9,2-1.44,3.4-2.12,4.71-5.37,10.29-10.66,20.62-16.23,30.8a7.19,7.19,0,0,0,.06,7.78c5.48,10.06,10.71,20.24,16,30.39.7,1.35,1.29,2.76,2.23,4.77-2.31.1-4,.24-5.63.25-10.51,0-21,.11-31.53-.06-3.07,0-4.82,1.05-6.37,3.66C525.7,760.28,518.71,771.62,511.2,784Z"
          transform="translate(-108.36 -42.95)" fill="#fff"/>
</svg>